<?xml version="1.0" encoding="utf-8"?>
<!-- Generator: Adobe Illustrator 24.1.0, SVG Export Plug-In . SVG Version: 6.00 Build 0)  -->
<svg version="1.1" id="Layer_1" xmlns="http://www.w3.org/2000/svg" xmlns:xlink="http://www.w3.org/1999/xlink" x="0px" y="0px"
	 viewBox="0 0 1551.8 400.8" style="enable-background:new 0 0 1551.8 400.8;" xml:space="preserve">
<style type="text/css">
	.st0{fill:#39B54A;}
</style>
<desc>Created with Sketch.</desc>
<g>
	<g>
		<path d="M61.1,110.1c6.6,5.6,10.7,13.1,12.2,22.5H54.9c-0.8-5.1-3-9.2-6.5-12.3c-3.6-3.1-8.3-4.7-14.2-4.7
			c-4.9,0-8.6,1.2-11.3,3.5s-4,5.5-4,9.4c0,2.9,1,5.3,2.9,7.1s4.3,3.2,7.2,4.2s7,2.2,12.3,3.4c7,1.6,12.7,3.2,17.1,4.9
			s8.1,4.4,11.2,8.1c3.1,3.7,4.7,8.7,4.7,15c0,7.8-3,14.2-8.9,19c-6,4.9-14,7.3-24.1,7.3c-11.7,0-21.1-2.7-28.3-8.2
			c-7.2-5.4-11.5-13-13-22.8h18.9c0.6,5.1,2.8,9.2,6.8,12.4s9.2,4.8,15.6,4.8c4.6,0,8.3-1.2,11-3.7c2.7-2.4,4-5.5,4-9.3
			c0-3.3-1-5.9-3.1-7.8c-2-1.9-4.6-3.4-7.6-4.5c-3.1-1.1-7.3-2.2-12.6-3.3c-6.8-1.6-12.3-3.2-16.6-4.8c-4.2-1.6-7.9-4.2-10.9-7.7
			c-3-3.6-4.5-8.4-4.5-14.5c0-7.9,3-14.4,8.9-19.3s14.2-7.4,24.7-7.4C45.7,101.7,54.5,104.5,61.1,110.1z"/>
		<path d="M166.4,107.4c6.4,3.9,11.4,9.4,15,16.7s5.4,15.8,5.4,25.5c0,9.9-1.8,18.4-5.4,25.7c-3.6,7.3-8.6,12.8-15,16.7
			s-13.7,5.8-21.8,5.8c-8.5,0-15.8-2.1-21.8-6.3s-10.2-9.7-12.6-16.7v66.3H90.8V102.9h19.4v21.8c2.4-6.9,6.6-12.5,12.6-16.7
			s13.3-6.3,21.8-6.3C152.7,101.7,160,103.6,166.4,107.4z M124,122.5c-4.3,2.6-7.7,6.2-10.2,10.9s-3.7,10.1-3.7,16.2
			c0,6.2,1.2,11.7,3.7,16.3s5.9,8.2,10.2,10.8c4.3,2.6,9.2,3.8,14.6,3.8c8.6,0,15.5-2.7,20.7-8.2s7.8-13.1,7.8-22.7
			c0-9.5-2.6-17.1-7.8-22.6c-5.2-5.6-12.1-8.3-20.7-8.3C133.2,118.7,128.3,119.9,124,122.5z"/>
		<path d="M270.2,107.4c7.3,3.9,12.9,9.4,17,16.7s6.1,15.8,6.1,25.5c0,9.9-2,18.4-6.1,25.7s-9.7,12.8-17,16.7s-15.4,5.8-24.5,5.8
			s-17.2-1.9-24.4-5.8c-7.2-3.9-12.9-9.4-17-16.7s-6.2-15.8-6.2-25.6c0-9.7,2.1-18.2,6.2-25.5c4.1-7.3,9.8-12.8,17-16.7
			c7.2-3.9,15.3-5.8,24.4-5.8S263,103.6,270.2,107.4z M232,121.9c-4.2,2.3-7.6,5.8-10.1,10.5c-2.6,4.7-3.8,10.5-3.8,17.3
			c0,6.9,1.3,12.7,3.8,17.3s5.9,8.1,10.1,10.4c4.2,2.3,8.8,3.4,13.8,3.4s9.6-1.1,13.8-3.4c4.2-2.3,7.6-5.7,10.1-10.4
			c2.5-4.6,3.8-10.4,3.8-17.3c0-6.8-1.3-12.6-3.8-17.3c-2.6-4.7-5.9-8.2-10.1-10.5c-4.2-2.3-8.8-3.4-13.8-3.4
			C240.8,118.5,236.2,119.6,232,121.9z"/>
		<path d="M342,106.7c5.9-3.6,12.7-5.4,20.4-5.4v21.1h-5.8c-8.5,0-15.3,2.1-20.5,6.2c-5.2,4.1-7.7,11-7.7,20.5v47.4H309v-93.7h19.4
			v18.4C331.6,115.1,336.1,110.3,342,106.7z"/>
		<path d="M425.4,179.7v16.8h-11.9c-10,0-17.5-2.4-22.7-7.2s-7.7-12.8-7.7-24.1v-45.9h-13.4v-16.5h13.4V79.6h19.5v23.3h22.6v16.5
			h-22.6v46.2c0,5.3,1,9,3,11s5.5,3.1,10.5,3.1H425.4z"/>
		<path d="M490,179.7v16.8h-11.9c-10,0-17.5-2.4-22.7-7.2s-7.7-12.8-7.7-24.1v-45.9h-13.4v-16.5h13.4V79.6h19.5v23.3h22.6v16.5
			h-22.6v46.2c0,5.3,1,9,3,11s5.5,3.1,10.5,3.1H490z"/>
		<path d="M587.8,153.5h-72.1c0.3,9.6,3,16.8,8,21.4c5,4.6,11.2,7,18.5,7c6.5,0,11.9-1.6,16.4-4.9c4.5-3.3,7.2-7.7,8.2-13.1h20.7
			c-1.2,6.6-3.9,12.4-7.8,17.5c-4,5.1-9.1,9.1-15.5,12c-6.3,2.9-13.4,4.3-21.2,4.3c-9.1,0-17.1-1.9-24.1-5.8
			c-7-3.9-12.4-9.4-16.4-16.7s-5.9-15.8-5.9-25.7c0-9.7,2-18.2,5.9-25.5c4-7.3,9.4-12.8,16.4-16.7c7-3.9,15-5.8,24.1-5.8
			c9.2,0,17.2,1.9,24.1,5.7c6.9,3.8,12.1,9,15.8,15.6s5.5,14,5.5,22.2C588.5,148.4,588.3,151.1,587.8,153.5z M565.8,129.3
			c-2.3-4.1-5.5-7.2-9.5-9.2s-8.4-3-13.2-3c-7.6,0-13.9,2.3-19,7c-5.1,4.6-7.9,11.5-8.3,20.6H569
			C569.2,138.6,568.1,133.4,565.8,129.3z"/>
		<path d="M676.3,111.3c7.9,6.4,12.9,15.1,14.8,26.1h-20.6c-1.1-5.9-3.9-10.5-8.2-13.9c-4.4-3.3-9.8-5-16.4-5
			c-7.5,0-13.7,2.6-18.7,7.9s-7.5,13-7.5,23.2s2.5,18,7.5,23.3s11.2,8,18.7,8c6.6,0,12-1.7,16.4-5.1c4.4-3.4,7.1-8,8.2-13.9h20.6
			c-1.9,11-6.9,19.7-14.8,26.2c-7.9,6.5-18,9.7-30.1,9.7c-9.1,0-17.1-1.9-24.1-5.8c-7-3.9-12.4-9.4-16.4-16.7s-5.9-15.8-5.9-25.7
			c0-9.7,2-18.2,5.9-25.5c4-7.3,9.4-12.8,16.4-16.7c7-3.9,15-5.8,24.1-5.8C658.3,101.7,668.4,104.9,676.3,111.3z"/>
		<path d="M784.9,111.9c6.6,7,9.9,17.1,9.9,30.1v54.6h-19.4V144c0-8.4-2.2-14.9-6.5-19.5c-4.3-4.6-10.2-6.9-17.7-6.9
			c-7.7,0-13.9,2.5-18.5,7.4c-4.6,4.9-7,12.2-7,21.7v49.8h-19.4V70.7h19.4v52.7c2.5-7,6.7-12.5,12.6-16.3c5.9-3.9,12.7-5.8,20.4-5.8
			C769.6,101.3,778.4,104.8,784.9,111.9z"/>
		<path d="M873.9,108c6,4.2,10.2,9.7,12.6,16.7v-54h19.6v125.8h-19.6v-21.8c-2.4,6.9-6.6,12.5-12.6,16.7s-13.3,6.3-21.8,6.3
			c-8.2,0-15.4-1.9-21.8-5.8c-6.4-3.9-11.4-9.4-15-16.7s-5.4-15.8-5.4-25.7c0-9.7,1.8-18.2,5.4-25.5c3.6-7.3,8.6-12.8,15-16.7
			c6.4-3.9,13.7-5.8,21.8-5.8C860.7,101.7,867.9,103.8,873.9,108z M837.5,126.9c-5.2,5.5-7.7,13.1-7.7,22.7s2.6,17.2,7.7,22.7
			c5.2,5.5,12,8.2,20.7,8.2c5.4,0,10.3-1.3,14.6-3.8s7.7-6.1,10.2-10.8c2.5-4.6,3.7-10.1,3.7-16.3c0-6.1-1.2-11.5-3.7-16.2
			s-5.9-8.3-10.2-10.9c-4.3-2.5-9.2-3.8-14.6-3.8C849.5,118.7,842.6,121.4,837.5,126.9z"/>
		<path d="M986.1,108c6,4.2,10.3,9.7,12.8,16.7v-21.8h19.4v93.7h-19.4v-21.8c-2.5,6.9-6.7,12.5-12.8,16.7c-6,4.2-13.3,6.3-21.8,6.3
			c-8.2,0-15.4-1.9-21.8-5.8c-6.4-3.9-11.4-9.4-15-16.7s-5.4-15.8-5.4-25.7c0-9.7,1.8-18.2,5.4-25.5c3.6-7.3,8.6-12.8,15-16.7
			c6.4-3.9,13.7-5.8,21.8-5.8C972.9,101.7,980.1,103.8,986.1,108z M949.7,126.9c-5.2,5.5-7.7,13.1-7.7,22.7s2.6,17.2,7.7,22.7
			c5.2,5.5,12,8.2,20.7,8.2c5.4,0,10.3-1.3,14.6-3.8s7.7-6.1,10.2-10.8c2.5-4.6,3.7-10.1,3.7-16.3c0-6.1-1.2-11.5-3.7-16.2
			s-5.9-8.3-10.2-10.9c-4.3-2.5-9.2-3.8-14.6-3.8C961.7,118.7,954.8,121.4,949.7,126.9z"/>
		<path d="M1039.6,67.5c2.3-2.2,5.3-3.2,9-3.2s6.8,1.1,9.1,3.2c2.3,2.2,3.5,4.9,3.5,8.2c0,3.3-1.2,6-3.5,8s-5.4,3.1-9.1,3.1
			s-6.7-1-9-3.1c-2.3-2-3.4-4.7-3.4-8C1036.2,72.4,1037.4,69.7,1039.6,67.5z M1058.3,102.9v93.7h-19.4v-93.7
			C1038.9,102.9,1058.3,102.9,1058.3,102.9z"/>
		<path d="M1098.4,70.7v125.8H1079V70.7H1098.4z"/>
		<path d="M1130.5,102.9l28,68.9l26-68.9h21.6l-56.6,138.2H1128l20.2-46.8l-39.4-91.5L1130.5,102.9L1130.5,102.9z"/>
		<polygon class="st0" points="1528.1,147 1485.6,213.9 1382.6,166 1295.2,3.4 1195.8,241.5 1217.4,241.5 1297.5,49.9 1368.1,181.3 
			1493,239.4 1551.8,147 		"/>
	</g>
	<g>
		<path d="M62,295.7L37.1,343v28.8h-9.9V343l-25-47.3h11.4l18.7,36.8l18.6-36.8H62z"/>
		<path d="M104.1,315.4c4.5,2.4,8,6,10.6,10.6s3.8,10,3.8,16.2s-1.3,11.6-3.8,16.1c-2.6,4.6-6.1,8.1-10.6,10.5s-9.6,3.7-15.3,3.7
			c-5.7,0-10.8-1.2-15.3-3.7c-4.5-2.4-8-6-10.6-10.5c-2.6-4.6-3.9-9.9-3.9-16.1s1.3-11.6,3.9-16.2c2.6-4.6,6.1-8.1,10.6-10.6
			c4.5-2.4,9.6-3.7,15.3-3.7C94.5,311.8,99.6,313,104.1,315.4z M79.1,322.8c-3,1.6-5.4,4-7.2,7.3c-1.8,3.3-2.8,7.3-2.8,12.1
			c0,4.7,0.9,8.8,2.8,12c1.8,3.3,4.2,5.7,7.2,7.3c3,1.6,6.2,2.4,9.8,2.4c3.5,0,6.8-0.8,9.8-2.4s5.4-4,7.2-7.3
			c1.8-3.3,2.8-7.3,2.8-12c0-4.8-0.9-8.9-2.8-12.1c-1.8-3.3-4.2-5.7-7.2-7.3c-3-1.6-6.2-2.4-9.8-2.4
			C85.3,320.4,82.1,321.2,79.1,322.8z"/>
		<path d="M182.5,312.5v59.2h-9.8v-13.9c-1.5,4.8-4.2,8.5-8,11.1s-8.3,3.8-13.4,3.8c-6.8,0-12.4-2.2-16.6-6.6
			c-4.2-4.4-6.4-10.8-6.4-19v-34.5h9.8v33.6c0,5.9,1.5,10.5,4.5,13.7s7.1,4.8,12.3,4.8c5.4,0,9.7-1.7,12.9-5.2s4.9-8.6,4.9-15.3
			v-31.5h9.8V312.5z"/>
		<path d="M214.8,314.9c3.7-2.3,8.2-3.4,13.4-3.4v10.7h-3c-5.5,0-10.1,1.4-13.6,4.3c-3.5,2.8-5.3,7.5-5.3,14.1v31.2h-9.8v-59.2h9.8
			v12C208.3,320.4,211.1,317.2,214.8,314.9z"/>
		<path d="M303.5,316.1c4,2.9,6.8,6.7,8.4,11.5v-35.7h9.8v79.9h-9.8v-15.1c-1.6,4.8-4.4,8.7-8.4,11.5c-4,2.9-8.9,4.3-14.6,4.3
			c-5.3,0-9.9-1.2-14-3.7c-4.1-2.4-7.3-6-9.7-10.5c-2.3-4.6-3.5-9.9-3.5-16.1s1.2-11.6,3.5-16.2s5.6-8.1,9.7-10.6
			c4.1-2.4,8.8-3.7,14-3.7C294.6,311.8,299.5,313.2,303.5,316.1z M277.2,326.3c-3.6,3.8-5.4,9.2-5.4,15.9c0,6.8,1.8,12.1,5.4,15.9
			s8.5,5.8,14.5,5.8c3.9,0,7.4-0.9,10.4-2.7c3.1-1.8,5.4-4.3,7.2-7.6c1.7-3.3,2.6-7.1,2.6-11.4s-0.9-8.1-2.6-11.4s-4.1-5.8-7.2-7.6
			c-3.1-1.8-6.5-2.6-10.4-2.6C285.6,320.5,280.8,322.4,277.2,326.3z"/>
		<path d="M374.6,316.1c4,2.9,6.8,6.7,8.4,11.5v-15.1h9.8v59.2H383v-15.1c-1.6,4.8-4.4,8.7-8.4,11.5c-4,2.9-8.9,4.3-14.6,4.3
			c-5.3,0-9.9-1.2-14-3.7c-4.1-2.4-7.3-6-9.7-10.5c-2.3-4.6-3.5-9.9-3.5-16.1s1.2-11.6,3.5-16.2s5.6-8.1,9.7-10.6
			c4.1-2.4,8.8-3.7,14-3.7C365.7,311.8,370.6,313.2,374.6,316.1z M348.2,326.3c-3.6,3.8-5.4,9.2-5.4,15.9c0,6.8,1.8,12.1,5.4,15.9
			s8.5,5.8,14.5,5.8c3.9,0,7.4-0.9,10.4-2.7c3.1-1.8,5.4-4.3,7.2-7.6c1.7-3.3,2.6-7.1,2.6-11.4s-0.9-8.1-2.6-11.4s-4.1-5.8-7.2-7.6
			c-3.1-1.8-6.5-2.6-10.4-2.6C356.7,320.5,351.9,322.4,348.2,326.3z"/>
		<path d="M434.8,363.1v8.6h-7.3c-6,0-10.6-1.4-13.5-4.3c-3-2.9-4.5-7.7-4.5-14.5V321h-8.8v-8.5h8.8v-14.8h9.9v14.8h15.3v8.5h-15.3
			v32.2c0,3.8,0.7,6.4,2.1,7.8s3.8,2.1,7.3,2.1H434.8z"/>
		<path d="M481.3,316.1c4,2.9,6.8,6.7,8.4,11.5v-15.1h9.8v59.2h-9.8v-15.1c-1.6,4.8-4.4,8.7-8.4,11.5c-4,2.9-8.9,4.3-14.6,4.3
			c-5.3,0-9.9-1.2-14-3.7c-4.1-2.4-7.3-6-9.7-10.5c-2.3-4.6-3.5-9.9-3.5-16.1s1.2-11.6,3.5-16.2s5.6-8.1,9.7-10.6
			c4.1-2.4,8.8-3.7,14-3.7C472.4,311.8,477.3,313.2,481.3,316.1z M455,326.3c-3.6,3.8-5.4,9.2-5.4,15.9c0,6.8,1.8,12.1,5.4,15.9
			s8.5,5.8,14.5,5.8c3.9,0,7.4-0.9,10.4-2.7c3.1-1.8,5.4-4.3,7.2-7.6c1.7-3.3,2.6-7.1,2.6-11.4s-0.9-8.1-2.6-11.4s-4.1-5.8-7.2-7.6
			c-3.1-1.8-6.5-2.6-10.4-2.6C463.4,320.5,458.6,322.4,455,326.3z"/>
		<path d="M580.7,316.1c4,2.9,6.8,6.7,8.4,11.5v-35.7h9.8v79.9H589v-15.1c-1.6,4.8-4.4,8.7-8.4,11.5c-4,2.9-8.9,4.3-14.6,4.3
			c-5.3,0-9.9-1.2-14-3.7c-4.1-2.4-7.3-6-9.7-10.5c-2.3-4.6-3.5-9.9-3.5-16.1s1.2-11.6,3.5-16.2s5.6-8.1,9.7-10.6
			c4.1-2.4,8.8-3.7,14-3.7C571.8,311.8,576.7,313.2,580.7,316.1z M554.3,326.3c-3.6,3.8-5.4,9.2-5.4,15.9c0,6.8,1.8,12.1,5.4,15.9
			c3.6,3.8,8.5,5.8,14.5,5.8c3.9,0,7.4-0.9,10.4-2.7c3.1-1.8,5.4-4.3,7.2-7.6c1.7-3.3,2.6-7.1,2.6-11.4s-0.9-8.1-2.6-11.4
			c-1.7-3.3-4.1-5.8-7.2-7.6c-3.1-1.8-6.5-2.6-10.4-2.6C562.8,320.5,558,322.4,554.3,326.3z"/>
		<path d="M631.1,314.9c3.7-2.3,8.2-3.4,13.4-3.4v10.7h-3c-5.5,0-10.1,1.4-13.6,4.3c-3.5,2.8-5.3,7.5-5.3,14.1v31.2h-9.8v-59.2h9.8
			v12C624.5,320.4,627.4,317.2,631.1,314.9z"/>
		<path d="M652.4,290.8c1.2-1.1,2.8-1.7,4.9-1.7c2,0,3.6,0.6,4.9,1.7c1.2,1.1,1.8,2.6,1.8,4.4s-0.6,3.3-1.8,4.4s-2.8,1.7-4.9,1.7
			c-2,0-3.6-0.6-4.9-1.7c-1.2-1.1-1.8-2.6-1.8-4.4C650.5,293.3,651.1,291.9,652.4,290.8z M662.1,312.5v59.2h-9.8v-59.2H662.1z"/>
		<path d="M698.9,361.3l18.3-48.8h10.6l-23.2,59.2H693l-23.2-59.2h10.6L698.9,361.3z"/>
		<path d="M786.9,344.2h-47.4c0.2,6.8,2.1,11.8,5.8,15.2c3.6,3.4,8.1,5.1,13.3,5.1c4.7,0,8.7-1.2,11.9-3.6s5.2-5.6,5.9-9.7h10.5
			c-0.7,4.1-2.3,7.8-4.8,11s-5.7,5.8-9.7,7.6c-4,1.8-8.4,2.7-13.4,2.7c-5.7,0-10.7-1.2-15.1-3.7c-4.4-2.4-7.8-6-10.3-10.5
			c-2.5-4.6-3.7-9.9-3.7-16.1s1.2-11.6,3.7-16.2s5.9-8.1,10.3-10.6c4.4-2.4,9.4-3.7,15.1-3.7c5.8,0,10.8,1.2,15.1,3.7
			c4.3,2.4,7.6,5.7,9.8,9.8c2.3,4.1,3.4,8.6,3.4,13.6C787.3,340.9,787.2,342.7,786.9,344.2z M775.2,328.5c-1.7-2.9-3.9-5.1-6.8-6.6
			c-2.9-1.4-6-2.2-9.4-2.2c-5.4,0-9.9,1.7-13.6,5c-3.7,3.3-5.6,8.3-5.9,14.7h37.9C777.6,335.1,776.9,331.4,775.2,328.5z"/>
		<path d="M846.3,318.2c4.2,4.4,6.4,10.8,6.4,19.2v34.4h-9.8v-33.6c0-5.9-1.5-10.4-4.5-13.6s-7.1-4.7-12.3-4.7
			c-5.4,0-9.7,1.7-13,5.2c-3.2,3.5-4.9,8.6-4.9,15.3v31.4h-9.8v-59.2h9.8v14c1.5-4.8,4.2-8.5,8-11.1s8.3-3.9,13.3-3.9
			C836.5,311.5,842.1,313.8,846.3,318.2z"/>
		<path d="M929.1,317c4.1,3.5,6.5,8.2,7.4,14.1h-9.4c-0.4-3.5-1.9-6.4-4.4-8.7c-2.5-2.3-5.8-3.4-10-3.4c-3.5,0-6.3,0.8-8.3,2.5
			s-3,4-3,6.9c0,2.2,0.7,3.9,2,5.2c1.3,1.3,3,2.3,5,3s4.7,1.4,8.1,2.2c4.4,1,7.9,2,10.6,3.1c2.7,1,5,2.7,6.9,5s2.9,5.4,2.9,9.3
			c0,4.8-1.8,8.7-5.5,11.8c-3.6,3-8.5,4.5-14.5,4.5c-7.1,0-12.8-1.7-17.3-5.1s-7.1-8.1-7.9-14.1h9.5c0.4,3.6,1.9,6.5,4.7,8.7
			s6.4,3.3,11,3.3c3.4,0,6-0.9,7.9-2.6s2.9-4,2.9-6.8c0-2.3-0.7-4.1-2-5.5c-1.4-1.4-3.1-2.4-5.1-3.1s-4.8-1.5-8.3-2.3
			c-4.4-1-7.9-2-10.5-3s-4.9-2.6-6.7-4.8c-1.8-2.2-2.8-5.2-2.8-8.9c0-5,1.8-9,5.5-12c3.7-3.1,8.7-4.6,15-4.6
			C919.7,311.8,925.1,313.5,929.1,317z"/>
		<path d="M995.1,315.4c4.1,2.4,7.3,6,9.7,10.6c2.3,4.6,3.5,10,3.5,16.2s-1.2,11.6-3.5,16.1c-2.3,4.6-5.6,8.1-9.7,10.5
			c-4.1,2.4-8.8,3.7-14,3.7c-5.8,0-10.6-1.5-14.6-4.4s-6.7-6.7-8.3-11.5v43.2h-9.8v-87.3h9.8v15.1c1.5-4.7,4.3-8.6,8.3-11.5
			s8.9-4.4,14.6-4.4C986.3,311.8,991,313,995.1,315.4z M967.9,323.1c-3.1,1.8-5.5,4.3-7.2,7.6c-1.7,3.3-2.6,7.1-2.6,11.4
			s0.9,8.1,2.6,11.4c1.7,3.3,4.1,5.8,7.2,7.6c3.1,1.8,6.5,2.7,10.4,2.7c6.1,0,11-1.9,14.6-5.8c3.6-3.8,5.4-9.2,5.4-15.9
			c0-6.8-1.8-12.1-5.4-15.9c-3.6-3.8-8.5-5.8-14.6-5.8C974.4,320.5,971,321.4,967.9,323.1z"/>
		<path d="M1061.4,315.4c4.5,2.4,8,6,10.6,10.6s3.8,10,3.8,16.2s-1.3,11.6-3.8,16.1c-2.6,4.6-6.1,8.1-10.6,10.5s-9.6,3.7-15.3,3.7
			c-5.7,0-10.8-1.2-15.3-3.7c-4.5-2.4-8-6-10.6-10.5c-2.6-4.6-3.9-9.9-3.9-16.1s1.3-11.6,3.9-16.2c2.6-4.6,6.1-8.1,10.6-10.6
			c4.5-2.4,9.6-3.7,15.3-3.7C1051.8,311.8,1056.9,313,1061.4,315.4z M1036.4,322.8c-3,1.6-5.4,4-7.2,7.3c-1.8,3.3-2.8,7.3-2.8,12.1
			c0,4.7,0.9,8.8,2.8,12c1.8,3.3,4.2,5.7,7.2,7.3c3,1.6,6.2,2.4,9.8,2.4c3.5,0,6.8-0.8,9.8-2.4s5.4-4,7.2-7.3
			c1.8-3.3,2.8-7.3,2.8-12c0-4.8-0.9-8.9-2.8-12.1c-1.8-3.3-4.2-5.7-7.2-7.3c-3-1.6-6.2-2.4-9.8-2.4S1039.4,321.2,1036.4,322.8z"/>
		<path d="M1105.1,314.9c3.7-2.3,8.2-3.4,13.4-3.4v10.7h-3c-5.5,0-10.1,1.4-13.6,4.3c-3.5,2.8-5.3,7.5-5.3,14.1v31.2h-9.8v-59.2h9.8
			v12C1098.5,320.4,1101.3,317.2,1105.1,314.9z"/>
		<path d="M1157.7,363.1v8.6h-7.3c-6,0-10.6-1.4-13.5-4.3c-3-2.9-4.5-7.7-4.5-14.5V321h-8.8v-8.5h8.8v-14.8h9.9v14.8h15.3v8.5h-15.3
			v32.2c0,3.8,0.7,6.4,2.1,7.8s3.8,2.1,7.3,2.1H1157.7z"/>
		<path d="M1166.6,290.8c1.2-1.1,2.8-1.7,4.9-1.7c2,0,3.6,0.6,4.9,1.7c1.2,1.1,1.8,2.6,1.8,4.4s-0.6,3.3-1.8,4.4
			c-1.2,1.1-2.8,1.7-4.9,1.7c-2,0-3.6-0.6-4.9-1.7c-1.2-1.1-1.8-2.6-1.8-4.4C1164.8,293.3,1165.4,291.9,1166.6,290.8z M1176.3,312.5
			v59.2h-9.8v-59.2H1176.3z"/>
		<path d="M1238.2,318.2c4.2,4.4,6.4,10.8,6.4,19.2v34.4h-9.8v-33.6c0-5.9-1.5-10.4-4.5-13.6s-7.1-4.7-12.3-4.7
			c-5.4,0-9.7,1.7-13,5.2c-3.2,3.5-4.9,8.6-4.9,15.3v31.4h-9.8v-59.2h9.8v14c1.5-4.8,4.2-8.5,8-11.1s8.3-3.9,13.3-3.9
			C1228.4,311.5,1234,313.8,1238.2,318.2z"/>
		<path d="M1296.8,316.1c4,2.9,6.8,6.7,8.4,11.5v-15.1h9.8v60.2c0,5.5-1.2,10.3-3.5,14.6c-2.3,4.2-5.5,7.6-9.7,9.9
			c-4.2,2.4-9,3.6-14.6,3.6c-8,0-14.5-1.9-19.5-5.8c-5-3.8-8.2-9-9.6-15.6h9.7c1.1,4,3.3,7.1,6.5,9.3c3.2,2.3,7.3,3.4,12.4,3.4
			c5.3,0,9.7-1.7,13.2-5.1s5.2-8.2,5.2-14.3v-16.1c-1.6,4.8-4.4,8.7-8.4,11.5c-4,2.9-8.9,4.3-14.6,4.3c-5.3,0-9.9-1.2-14-3.7
			c-4.1-2.4-7.3-6-9.7-10.5c-2.3-4.6-3.5-9.9-3.5-16.1s1.2-11.6,3.5-16.2s5.6-8.1,9.7-10.6c4.1-2.4,8.8-3.7,14-3.7
			C1288,311.8,1292.8,313.2,1296.8,316.1z M1270.5,326.3c-3.6,3.8-5.4,9.2-5.4,15.9c0,6.8,1.8,12.1,5.4,15.9s8.5,5.8,14.5,5.8
			c3.9,0,7.4-0.9,10.4-2.7c3.1-1.8,5.4-4.3,7.2-7.6c1.7-3.3,2.6-7.1,2.6-11.4s-0.9-8.1-2.6-11.4s-4.1-5.8-7.2-7.6
			c-3.1-1.8-6.5-2.6-10.4-2.6C1279,320.5,1274.1,322.4,1270.5,326.3z"/>
		<path d="M1405.2,318.2c4.2,4.4,6.4,10.8,6.4,19.2v34.4h-9.8v-33.6c0-5.9-1.5-10.4-4.5-13.6s-7.1-4.7-12.3-4.7
			c-5.4,0-9.7,1.7-13,5.2c-3.2,3.5-4.9,8.6-4.9,15.3v31.4h-9.8v-79.9h9.8v34.6c1.5-4.8,4.2-8.5,8-11.1s8.3-3.9,13.3-3.9
			C1395.4,311.5,1401,313.8,1405.2,318.2z"/>
		<path d="M1478,312.5v59.2h-9.8v-13.9c-1.5,4.8-4.2,8.5-8,11.1s-8.3,3.8-13.4,3.8c-6.8,0-12.4-2.2-16.6-6.6s-6.4-10.8-6.4-19v-34.5
			h9.8v33.6c0,5.9,1.5,10.5,4.5,13.7s7.1,4.8,12.3,4.8c5.4,0,9.7-1.7,12.9-5.2c3.2-3.5,4.9-8.6,4.9-15.3v-31.5h9.8V312.5z"/>
		<path d="M1538.7,315.4c4.1,2.4,7.3,6,9.7,10.6c2.3,4.6,3.5,10,3.5,16.2s-1.2,11.6-3.5,16.1c-2.3,4.6-5.6,8.1-9.7,10.5
			s-8.8,3.7-14,3.7c-5.8,0-10.6-1.5-14.6-4.4s-6.7-6.7-8.3-11.5v15.1h-9.8v-79.9h9.8v35.7c1.5-4.7,4.3-8.6,8.3-11.5
			s8.9-4.4,14.6-4.4C1529.9,311.8,1534.6,313,1538.7,315.4z M1511.5,323.1c-3.1,1.8-5.5,4.3-7.2,7.6c-1.7,3.3-2.6,7.1-2.6,11.4
			s0.9,8.1,2.6,11.4s4.1,5.8,7.2,7.6c3.1,1.8,6.5,2.7,10.4,2.7c6.1,0,11-1.9,14.6-5.8c3.6-3.8,5.4-9.2,5.4-15.9
			c0-6.8-1.8-12.1-5.4-15.9s-8.5-5.8-14.6-5.8C1518,320.5,1514.6,321.4,1511.5,323.1z"/>
	</g>
</g>
</svg>
